<?xml version="1.0" encoding="UTF-8" standalone="no"?>
<!-- Created with Inkscape (http://www.inkscape.org/) -->

<svg
   xmlns:dc="http://purl.org/dc/elements/1.1/"
   xmlns:cc="http://creativecommons.org/ns#"
   xmlns:rdf="http://www.w3.org/1999/02/22-rdf-syntax-ns#"
   xmlns:svg="http://www.w3.org/2000/svg"
   xmlns="http://www.w3.org/2000/svg"
   xmlns:sodipodi="http://sodipodi.sourceforge.net/DTD/sodipodi-0.dtd"
   xmlns:inkscape="http://www.inkscape.org/namespaces/inkscape"
   width="210mm"
   height="297mm"
   viewBox="0 0 210 297"
   version="1.1"
   id="svg8"
   inkscape:version="0.92.4 (5da689c313, 2019-01-14)"
   sodipodi:docname="drawing-1.svg">
  <defs
     id="defs2" />
  <sodipodi:namedview
     id="base"
     pagecolor="#ffffff"
     bordercolor="#666666"
     borderopacity="1.0"
     inkscape:pageopacity="0.0"
     inkscape:pageshadow="2"
     inkscape:zoom="3.6021014"
     inkscape:cx="200.10499"
     inkscape:cy="607.23282"
     inkscape:document-units="mm"
     inkscape:current-layer="layer1"
     showgrid="false"
     inkscape:window-width="3840"
     inkscape:window-height="2066"
     inkscape:window-x="-11"
     inkscape:window-y="-11"
     inkscape:window-maximized="1" />
  <metadata
     id="metadata5">
    <rdf:RDF>
      <cc:Work
         rdf:about="">
        <dc:format>image/svg+xml</dc:format>
        <dc:type
           rdf:resource="http://purl.org/dc/dcmitype/StillImage" />
        <dc:title></dc:title>
      </cc:Work>
    </rdf:RDF>
  </metadata>
  <g
     inkscape:label="Layer 1"
     inkscape:groupmode="layer"
     id="layer1">
    <path
       style="fill:#ffffff;stroke:#000000;stroke-width:0.5;stroke-linecap:round;stroke-linejoin:round;paint-order:fill markers stroke"
       id="path4586"
       d="m 81.357554,88.749205 c -0.126011,0.819359 -0.264975,1.634871 -0.412121,2.450811 -0.08127,0.450639 -0.143208,0.905111 -0.241871,1.352262 -0.367078,1.663637 -1.060233,4.094641 -1.472483,5.606015 -0.500272,1.741644 -1.018233,3.478307 -1.500812,5.224927 -0.563129,2.03818 -1.058058,4.09501 -1.636175,6.12898 -0.722376,2.54151 -1.504763,5.06559 -2.264897,7.59607 -1.998009,6.65133 -3.00799,10.03026 -5.159947,16.66055 -0.864732,2.66429 -1.768528,5.31573 -2.652791,7.9736 -1.742679,5.0246 -2.725958,8.02491 -4.611672,12.87597 -1.41482,3.63966 -2.1722,5.53945 -4.056359,8.86993 -1.588383,2.80766 -2.036596,3.22858 -3.89047,5.62702 -1.273471,1.38198 -1.531398,1.75868 -2.862712,2.89145 -0.31818,0.27073 -0.637215,0.54635 -0.994858,0.76228 -2.19302,1.32407 -4.412099,2.60553 -6.649513,3.85312 -0.227634,0.12693 -0.483605,0.19858 -0.735663,0.26489 -0.18605,0.0489 -0.381135,0.0527 -0.571704,0.079 -0.564378,-0.0483 -0.300749,0.005 -0.793867,-0.14304 l 5.905437,-4.11705 c 1.478691,-1.44642 0.692304,-0.69132 1.514917,-1.46978 2.192401,-2.47603 2.548218,-2.72249 4.439922,-5.67083 1.968715,-3.06835 3.336319,-5.84772 4.870093,-9.18026 2.575692,-5.5964 3.157411,-7.33365 5.49457,-13.2634 0.93163,-2.67704 1.916002,-5.33631 2.794892,-8.03113 1.711833,-5.24877 3.37635,-11.05118 4.69129,-16.42072 0.59065,-2.41192 1.096576,-4.84395 1.613101,-7.27283 0.417819,-1.96472 0.83761,-3.9298 1.189794,-5.90733 0.285949,-1.60562 0.482672,-3.22586 0.724006,-4.83879 0.420092,-3.34358 0.323215,-2.399229 0.604949,-5.140582 0.111749,-1.087364 0.136284,-1.278451 0.199691,-2.299846 0.01479,-0.238458 0.03124,-0.476993 0.03549,-0.715872 0.003,-0.171 -0.009,-0.341937 -0.0136,-0.512908 l 6.443345,-3.232547 z"
       inkscape:connector-curvature="0"
       sodipodi:nodetypes="ccsccscscssccccccccccscsscsccccccc" />
    <path
       style="fill:#ffffff;stroke:#000000;stroke-width:0.5;stroke-linecap:round;stroke-linejoin:round;paint-order:fill markers stroke"
       id="path4588"
       d="m 45.741772,158.18918 c 0.07869,-0.0118 0.156871,-0.0277 0.236074,-0.0353 0.135578,-0.013 0.272296,-0.0123 0.407747,-0.0267 0.464516,-0.0491 0.921708,-0.13173 1.380958,-0.21645 0.565111,-0.10423 1.984733,-0.38512 2.457355,-0.47793 2.832452,-0.61152 5.670479,-1.19587 8.496522,-1.83712 1.475603,-0.33482 2.945874,-0.69281 4.421093,-1.02931 9.371369,-2.13765 1.249706,-0.20702 11.310834,-2.64324 4.885565,-1.27958 7.513711,-1.89174 12.351088,-3.47389 2.07286,-0.67797 4.127286,-1.41345 6.166321,-2.18721 1.929715,-0.73228 3.851579,-1.48985 5.736926,-2.32979 4.63871,-2.06658 6.15265,-3.04862 10.53514,-5.51171 0,0 -3.54378,2.86041 -3.54378,2.86041 v 0 c -4.15104,2.28609 -6.042437,3.4487 -10.44299,5.36513 -1.834581,0.79895 -3.711654,1.49816 -5.588849,2.19109 -6.092687,2.24898 -12.30548,4.18949 -18.624574,5.695 -3.981079,1.0408 -7.960137,2.08938 -11.943135,3.12281 -1.541947,0.40007 -3.08846,0.78254 -4.628671,1.18923 -4.423868,1.16812 -3.436593,0.95205 -7.3817,2.02703 -0.705009,0.1921 -1.413034,0.37297 -2.119548,0.55946 -0.91699,0.22776 -1.81551,0.45908 -2.736816,0.66184 -0.676603,0.14891 -0.913577,0.18213 -1.560655,0.3027 -0.686544,0.12792 -0.228021,0.0509 -0.762355,0.13715 0,0 5.833015,-4.34321 5.833015,-4.34321 z"
       inkscape:connector-curvature="0" />
    <path
       style="fill:#ffffff;stroke:#000000;stroke-width:0.5;stroke-linecap:round;stroke-linejoin:round;paint-order:fill markers stroke"
       id="path4592"
       d="m 52.640669,134.0091 c 0.325231,-0.009 0.785159,-0.0187 1.079944,-0.0417 0.798671,-0.0624 2.323047,-0.24259 3.008903,-0.33023 1.636178,-0.20905 4.302069,-0.59246 5.828209,-0.80804 1.39958,-0.22907 2.800528,-0.44994 4.198739,-0.68722 1.892544,-0.32118 3.788236,-0.62616 5.673397,-0.98815 7.23483,-1.38927 14.410791,-3.102 21.489673,-5.14306 2.303266,-0.6641 4.583075,-1.40703 6.874616,-2.11054 5.66025,-2.00141 6.80852,-2.27499 12.20055,-4.68641 1.76057,-0.78735 3.50269,-1.61852 5.2148,-2.50634 1.54524,-0.80129 3.03483,-1.70559 4.55225,-2.55839 0,0 -3.79727,3.06311 -3.79727,3.06311 v 0 c -1.45298,0.78817 -2.88014,1.62594 -4.35895,2.36452 -1.64556,0.82184 -3.31983,1.58708 -5.00932,2.31433 -5.3527,2.30409 -6.28551,2.49367 -11.90258,4.40268 -2.227067,0.64955 -4.447249,1.3232 -6.681203,1.94866 -5.80117,1.6242 -8.933979,2.39752 -14.798744,3.82222 -2.0976,0.50955 -11.173991,2.66802 -13.600829,3.20568 -1.508488,0.3342 -3.026577,0.62348 -4.539864,0.93522 -3.686347,0.73409 -3.158506,0.63679 -6.455428,1.26812 -0.921356,0.17643 -2.492632,0.48251 -3.496448,0.64142 -0.637079,0.10084 -0.782137,0.1058 -1.343657,0.15403 0,0 5.863212,-4.25987 5.863212,-4.25987 z"
       inkscape:connector-curvature="0" />
    <path
       style="fill:#ffffff;stroke:#000000;stroke-width:0.5;stroke-linecap:round;stroke-linejoin:round;paint-order:fill markers stroke"
       id="path4594"
       d="m 59.524013,107.48899 c 2.296512,0.25029 4.549105,0.11931 6.850306,-0.0962 4.167756,-0.3904 5.58529,-0.69002 9.852691,-1.36585 2.087431,-0.4466 4.191559,-0.82124 6.262288,-1.33978 5.234091,-1.3107 10.405552,-2.97476 15.476093,-4.808736 2.816449,-1.018689 5.589549,-2.153431 8.384329,-3.230145 0,0 -2.32515,1.8243 -2.32515,1.8243 v 0 c -2.83712,1.104966 -5.656409,2.256861 -8.511358,3.314901 -2.791693,1.0346 -5.599716,2.02682 -8.42622,2.96215 -7.417607,2.45457 -7.445915,2.32558 -14.603489,4.09544 -1.848374,0.33972 -3.693171,0.69951 -5.545122,1.01916 -3.483522,0.60125 -5.641242,0.89289 -9.055933,1.38585 -0.971928,0.14031 -1.941481,0.2983 -2.91587,0.42036 -0.436229,0.0547 -0.879387,0.0338 -1.316111,0.086 0,0 5.873546,-4.26738 5.873546,-4.26738 z"
       inkscape:connector-curvature="0" />
    <path
       style="fill:#ffffff;stroke:#000000;stroke-width:0.5;stroke-linecap:round;stroke-linejoin:round;paint-order:fill markers stroke"
       id="path4600"
       d="m 81.357554,88.749205 c 0.438412,3.405847 -0.259043,9.61935 0.523187,12.958165 0.382926,1.71534 0.716597,3.44243 1.148778,5.14604 0.995693,3.92491 2.495653,8.77589 3.738825,12.59811 1.949235,5.99307 2.771711,8.46347 5.210458,14.25489 0.977929,2.32234 2.055878,4.60128 3.083819,6.90192 2.653096,5.3666 5.559269,10.60792 8.716079,15.69452 0.74803,1.20532 1.53713,2.38467 2.3057,3.57701 l -4.57581,2.64078 v 0 c -1.5403,-3.02284 -2.728481,-5.32251 -4.232277,-8.42244 -2.496473,-5.14622 -2.972088,-6.29262 -5.417891,-11.68333 -1.035651,-2.30302 -2.131079,-4.58008 -3.106952,-6.90905 -0.97137,-2.31823 -1.815997,-4.68755 -2.732823,-7.02788 -0.924827,-2.36075 -1.301405,-4.3649 -2.194826,-6.73771 -3.26953,-9.60951 -5.893047,-21.770048 -8.540034,-28.736637 -0.125807,-0.334205 -0.249252,-0.68553 -0.369592,-1.021881 z"
       inkscape:connector-curvature="0"
       sodipodi:nodetypes="ccsssccccccccscccc" />
  </g>
</svg>
